# file written by OpenSceneGraph

mtllib g1.mtl


o _Geometry_0

v 21790.412109375 10504.5888671875 36084
v 21750 10487.849609375 36084
v 21709.587890625 10504.5888671875 36084
v 21692.849609375 10545 36084
v 21709.587890625 10585.4111328125 36084
v 21750 10602.150390625 36084
v 21790.412109375 10585.4111328125 36084
v 21807.150390625 10545 36084
v 21807.150390625 10545 36091.8984375
v 21790.412109375 10585.4111328125 36091.8984375
v 21750 10602.150390625 36091.8984375
v 21709.587890625 10585.4111328125 36091.8984375
v 21692.849609375 10545 36091.8984375
v 21709.587890625 10504.5888671875 36091.8984375
v 21750 10487.849609375 36091.8984375
v 21790.412109375 10504.5888671875 36091.8984375
v 21790.412109375 10504.5888671875 36384.1015625
v 21750 10487.849609375 36384.1015625
v 21709.587890625 10504.5888671875 36384.1015625
v 21692.849609375 10545 36384.1015625
v 21709.587890625 10585.4111328125 36384.1015625
v 21750 10602.150390625 36384.1015625
v 21790.412109375 10585.4111328125 36384.1015625
v 21807.150390625 10545 36384.1015625
v 21807.150390625 10545 38788.19921875
v 21790.412109375 10585.4111328125 38788.19921875
v 21750 10602.150390625 38788.19921875
v 21709.587890625 10585.4111328125 38788.19921875
v 21692.849609375 10545 38788.19921875
v 21709.587890625 10504.5888671875 38788.19921875
v 21750 10487.849609375 38788.19921875
v 21790.412109375 10504.5888671875 38788.19921875
v 21830.822265625 10464.177734375 36091.8984375
v 21750 10430.7001953125 36091.8984375
v 21669.177734375 10464.177734375 36091.8984375
v 21635.69921875 10545 36091.8984375
v 21669.177734375 10625.822265625 36091.8984375
v 21750 10659.2998046875 36091.8984375
v 21830.822265625 10625.822265625 36091.8984375
v 21864.30078125 10545 36091.8984375
v 21750 10545 36237.5
v 21830.822265625 10625.822265625 36384.1015625
v 21750 10659.2998046875 36384.1015625
v 21669.177734375 10625.822265625 36384.1015625
v 21635.69921875 10545 36384.1015625
v 21669.177734375 10464.177734375 36384.1015625
v 21750 10430.7001953125 36384.1015625
v 21830.822265625 10464.177734375 36384.1015625
v 21864.30078125 10545 36384.1015625
v 21750 10545 36238.5
v 21750.5 10545 36238.5
v 21749.5 10545 36238.5
v 21749.5 10545 36237.5
v 21750.5 10545 36237.5
v 21750.5 11042.2998046875 36237.5
v 21750.5 11042.2998046875 36238.5
v 21749.5 11042.2998046875 36237.5
v 21749.5 11042.2998046875 36238.5
v 21839.802734375 11042.2998046875 36148.19921875
v 21877 11042.2998046875 36238
v 21839.802734375 11042.2998046875 36327.80078125
v 21750 11042.2998046875 36365
v 21660.197265625 11042.2998046875 36327.80078125
v 21623 11042.2998046875 36238
v 21660.197265625 11042.2998046875 36148.19921875
v 21750 11042.2998046875 36111
v 21750 11043.2998046875 36111
v 21660.197265625 11043.2998046875 36148.19921875
v 21623 11043.2998046875 36238
v 21660.197265625 11043.2998046875 36327.80078125
v 21750 11043.2998046875 36365
v 21839.802734375 11043.2998046875 36327.80078125
v 21877 11043.2998046875 36238
v 21839.802734375 11043.2998046875 36148.19921875
v 21790.412109375 10504.5888671875 36084
v 21750 10487.849609375 36084
v 21709.587890625 10504.5888671875 36084
v 21692.849609375 10545 36084
v 21709.587890625 10585.4111328125 36084
v 21750 10602.150390625 36084
v 21790.412109375 10585.4111328125 36084
v 21807.150390625 10545 36084
v 21807.150390625 10545 36091.8984375
v 21790.412109375 10585.4111328125 36091.8984375
v 21750 10602.150390625 36091.8984375
v 21709.587890625 10585.4111328125 36091.8984375
v 21692.849609375 10545 36091.8984375
v 21709.587890625 10504.5888671875 36091.8984375
v 21750 10487.849609375 36091.8984375
v 21790.412109375 10504.5888671875 36091.8984375
v 21790.412109375 10504.5888671875 36384.1015625
v 21750 10487.849609375 36384.1015625
v 21709.587890625 10504.5888671875 36384.1015625
v 21692.849609375 10545 36384.1015625
v 21709.587890625 10585.4111328125 36384.1015625
v 21750 10602.150390625 36384.1015625
v 21790.412109375 10585.4111328125 36384.1015625
v 21807.150390625 10545 36384.1015625
v 21807.150390625 10545 38788.19921875
v 21790.412109375 10585.4111328125 38788.19921875
v 21750 10602.150390625 38788.19921875
v 21709.587890625 10585.4111328125 38788.19921875
v 21692.849609375 10545 38788.19921875
v 21709.587890625 10504.5888671875 38788.19921875
v 21750 10487.849609375 38788.19921875
v 21790.412109375 10504.5888671875 38788.19921875
v 21830.822265625 10464.177734375 36091.8984375
v 21750 10430.7001953125 36091.8984375
v 21669.177734375 10464.177734375 36091.8984375
v 21635.69921875 10545 36091.8984375
v 21669.177734375 10625.822265625 36091.8984375
v 21750 10659.2998046875 36091.8984375
v 21830.822265625 10625.822265625 36091.8984375
v 21864.30078125 10545 36091.8984375
v 21830.822265625 10625.822265625 36384.1015625
v 21750 10659.2998046875 36384.1015625
v 21669.177734375 10625.822265625 36384.1015625
v 21635.69921875 10545 36384.1015625
v 21669.177734375 10464.177734375 36384.1015625
v 21750 10430.7001953125 36384.1015625
v 21830.822265625 10464.177734375 36384.1015625
v 21864.30078125 10545 36384.1015625
v 21750.5 10545 36238.5
v 21750.5 10545 36238.5
v 21749.5 10545 36238.5
v 21749.5 10545 36238.5
v 21749.5 10545 36237.5
v 21749.5 10545 36237.5
v 21750.5 10545 36237.5
v 21750.5 10545 36237.5
v 21750.5 11042.2998046875 36237.5
v 21750.5 11042.2998046875 36237.5
v 21750.5 11042.2998046875 36238.5
v 21750.5 11042.2998046875 36238.5
v 21749.5 11042.2998046875 36237.5
v 21749.5 11042.2998046875 36237.5
v 21749.5 11042.2998046875 36238.5
v 21749.5 11042.2998046875 36238.5
v 21839.802734375 11042.2998046875 36148.19921875
v 21877 11042.2998046875 36238
v 21839.802734375 11042.2998046875 36327.80078125
v 21750 11042.2998046875 36365
v 21660.197265625 11042.2998046875 36327.80078125
v 21623 11042.2998046875 36238
v 21660.197265625 11042.2998046875 36148.19921875
v 21750 11042.2998046875 36111
v 21750 11043.2998046875 36111
v 21660.197265625 11043.2998046875 36148.19921875
v 21623 11043.2998046875 36238
v 21660.197265625 11043.2998046875 36327.80078125
v 21750 11043.2998046875 36365
v 21839.802734375 11043.2998046875 36327.80078125
v 21877 11043.2998046875 36238
v 21839.802734375 11043.2998046875 36148.19921875
# 154 elements written

vn 0.79717880487442017 -0.60374331474304199 0
vn 0.1367717981338501 -0.99060255289077759 0
vn -0.60374808311462402 -0.79717522859573364 0
vn -0.99060285091400146 -0.13676956295967102 0
vn -0.79717880487442017 0.60374331474304199 0
vn -0.1367717981338501 0.99060255289077759 0
vn 0.60374808311462402 0.79717522859573364 0
vn 0.99060285091400146 0.13676956295967102 0
vn 0.99060285091400146 -0.13676956295967102 0
vn 0.79717880487442017 0.60374337434768677 0
vn 0.1367717981338501 0.99060255289077759 0
vn -0.60374808311462402 0.79717522859573364 0
vn -0.99060285091400146 0.13676956295967102 0
vn -0.79717880487442017 -0.60374337434768677 0
vn -0.1367717981338501 -0.99060255289077759 0
vn 0.60374808311462402 -0.79717522859573364 0
vn 0.79717880487442017 -0.60374331474304199 0
vn 0.1367717832326889 -0.99060255289077759 0
vn -0.60374802350997925 -0.79717522859573364 0
vn -0.99060285091400146 -0.13676956295967102 0
vn -0.79717880487442017 0.60374331474304199 0
vn -0.1367717832326889 0.99060255289077759 0
vn 0.60374802350997925 0.79717522859573364 0
vn 0.99060285091400146 0.13676956295967102 0
vn 0.99060285091400146 -0.13676956295967102 0
vn 0.79717880487442017 0.60374331474304199 0
vn 0.1367717832326889 0.99060255289077759 0
vn -0.60374796390533447 0.79717522859573364 0
vn -0.99060285091400146 0.13676956295967102 0
vn -0.79717880487442017 -0.60374331474304199 0
vn -0.1367717832326889 -0.99060255289077759 0
vn 0.60374796390533447 -0.79717522859573364 0
vn 0.5561974048614502 -0.55620115995407104 0.61748254299163818
vn 0 -0.78658378124237061 0.61748349666595459
vn -0.5561974048614502 -0.55620115995407104 0.61748254299163818
vn -0.78658193349838257 1.5672169340064102e-08 0.61748600006103516
vn -0.5561974048614502 0.55620115995407104 0.61748254299163818
vn 0 0.78658378124237061 0.61748349666595459
vn 0.5561974048614502 0.55620115995407104 0.61748254299163818
vn 0.78658193349838257 -1.5672169340064102e-08 0.61748600006103516
vn 0 -1.2690319017849561e-08 1
vn 0.5561974048614502 0.55620115995407104 -0.61748254299163818
vn 0 0.78658378124237061 -0.61748349666595459
vn -0.5561974048614502 0.55620115995407104 -0.61748254299163818
vn -0.78658193349838257 -1.5672169340064102e-08 -0.61748600006103516
vn -0.5561974048614502 -0.55620115995407104 -0.61748254299163818
vn 0 -0.78658378124237061 -0.61748349666595459
vn 0.5561974048614502 -0.55620115995407104 -0.61748254299163818
vn 0.78658193349838257 1.5672169340064102e-08 -0.61748600006103516
vn 0 1.2690319017849561e-08 -1
vn 1 0 0
vn -1 0 0
vn 0 0 -1
vn 0 0 -1
vn 0 1 0
vn 0 1 0
vn 0 1 0
vn 0 1 0
vn 0.60375571250915527 0 -0.79716938734054565
vn 0.99060207605361938 0 -0.1367756724357605
vn 0.79717600345611572 0 0.60374701023101807
vn 0.13677980005741119 0 0.99060142040252686
vn -0.60375571250915527 0 0.79716938734054565
vn -0.99060207605361938 0 0.1367756724357605
vn -0.79717600345611572 0 -0.60374701023101807
vn -0.13677980005741119 0 -0.99060142040252686
vn 0.13677980005741119 0 -0.99060142040252686
vn -0.60375571250915527 0 -0.79716938734054565
vn -0.99060207605361938 0 -0.1367756724357605
vn -0.79717600345611572 0 0.60374695062637329
vn -0.13677980005741119 0 0.99060142040252686
vn 0.60375571250915527 0 0.79716938734054565
vn 0.99060207605361938 0 0.1367756724357605
vn 0.79717600345611572 0 -0.60374695062637329
vn 0 0 -1
vn 0 0 -1
vn 0 0 -1
vn 0 0 -1
vn 0 0 -1
vn 0 0 -1
vn 0 0 -1
vn 0 0 -1
vn 0 0 1
vn 0 0 1
vn 0 0 1
vn 0 0 1
vn 0 0 1
vn 0 0 1
vn 0 0 1
vn 0 0 1
vn 0 0 -1
vn 0 0 -1
vn 0 0 -1
vn 0 0 -1
vn 0 0 -1
vn 0 0 -1
vn 0 0 -1
vn 0 0 -1
vn 0 0 1
vn 0 0 1
vn 0 0 1
vn 0 0 1
vn 0 0 1
vn 0 0 1
vn 0 0 1
vn 0 0 1
vn 0 0 -1
vn 0 0 -1
vn 0 0 -1
vn 0 0 -1
vn 0 0 -1
vn 0 0 -1
vn 0 0 -1
vn 0 0 -1
vn 0 0 1
vn 0 0 1
vn 0 0 1
vn 0 0 1
vn 0 0 1
vn 0 0 1
vn 0 0 1
vn 0 0 1
vn 0 -1 0
vn 0 0 1
vn 0 -1 0
vn 0 0 1
vn 0 -1 0
vn -1 0 0
vn 0 -1 0
vn 1 0 0
vn 1 0 0
vn 0 0 -1
vn 1 0 0
vn 0 0 1
vn 0 0 -1
vn -1 0 0
vn -1 0 0
vn 0 0 1
vn 0 -1 0
vn 0 -1 0
vn 0 -1 0
vn 0 -1 0
vn 0 -1 0
vn 0 -1 0
vn 0 -1 0
vn 0 -1 0
vn 0 1 0
vn 0 1 0
vn 0 1 0
vn 0 1 0
vn 0 1 0
vn 0 1 0
vn 0 1 0
vn 0 1 0
# 154 elements written
f 75//75 76//76 77//77 
f 75//75 77//77 78//78 
f 75//75 78//78 79//79 
f 75//75 79//79 80//80 
f 75//75 80//80 81//81 
f 75//75 81//81 82//82 
f 83//83 84//84 85//85 
f 83//83 85//85 86//86 
f 83//83 86//86 87//87 
f 83//83 87//87 88//88 
f 83//83 88//88 89//89 
f 83//83 89//89 90//90 
f 8//8 7//7 10//10 
f 8//8 10//10 9//9 
f 7//7 6//6 11//11 
f 7//7 11//11 10//10 
f 6//6 5//5 12//12 
f 6//6 12//12 11//11 
f 5//5 4//4 13//13 
f 5//5 13//13 12//12 
f 4//4 3//3 14//14 
f 4//4 14//14 13//13 
f 3//3 2//2 15//15 
f 3//3 15//15 14//14 
f 2//2 1//1 16//16 
f 2//2 16//16 15//15 
f 1//1 8//8 9//9 
f 1//1 9//9 16//16 
f 91//91 92//92 93//93 
f 91//91 93//93 94//94 
f 91//91 94//94 95//95 
f 91//91 95//95 96//96 
f 91//91 96//96 97//97 
f 91//91 97//97 98//98 
f 99//99 100//100 101//101 
f 99//99 101//101 102//102 
f 99//99 102//102 103//103 
f 99//99 103//103 104//104 
f 99//99 104//104 105//105 
f 99//99 105//105 106//106 
f 24//24 23//23 26//26 
f 24//24 26//26 25//25 
f 23//23 22//22 27//27 
f 23//23 27//27 26//26 
f 22//22 21//21 28//28 
f 22//22 28//28 27//27 
f 21//21 20//20 29//29 
f 21//21 29//29 28//28 
f 20//20 19//19 30//30 
f 20//20 30//30 29//29 
f 19//19 18//18 31//31 
f 19//19 31//31 30//30 
f 18//18 17//17 32//32 
f 18//18 32//32 31//31 
f 17//17 24//24 25//25 
f 17//17 25//25 32//32 
f 107//107 108//108 109//109 
f 107//107 109//109 110//110 
f 107//107 110//110 111//111 
f 107//107 111//111 112//112 
f 107//107 112//112 113//113 
f 107//107 113//113 114//114 
f 40//40 39//39 41//41 
f 39//39 38//38 41//41 
f 38//38 37//37 41//41 
f 37//37 36//36 41//41 
f 36//36 35//35 41//41 
f 35//35 34//34 41//41 
f 34//34 33//33 41//41 
f 33//33 40//40 41//41 
f 115//115 116//116 117//117 
f 115//115 117//117 118//118 
f 115//115 118//118 119//119 
f 115//115 119//119 120//120 
f 115//115 120//120 121//121 
f 115//115 121//121 122//122 
f 49//49 48//48 50//50 
f 48//48 47//47 50//50 
f 47//47 46//46 50//50 
f 46//46 45//45 50//50 
f 45//45 44//44 50//50 
f 44//44 43//43 50//50 
f 43//43 42//42 50//50 
f 42//42 49//49 50//50 
f 123//123 125//125 127//127 
f 123//123 127//127 129//129 
f 51//51 130//130 131//131 
f 51//51 131//131 133//133 
f 54//54 53//53 135//135 
f 54//54 135//135 132//132 
f 128//128 52//52 137//137 
f 128//128 137//137 136//136 
f 126//126 124//124 134//134 
f 126//126 134//134 138//138 
f 56//56 55//55 57//57 
f 56//56 57//57 58//58 
f 139//139 140//140 141//141 
f 139//139 141//141 142//142 
f 139//139 142//142 143//143 
f 139//139 143//143 144//144 
f 139//139 144//144 145//145 
f 139//139 145//145 146//146 
f 147//147 148//148 149//149 
f 147//147 149//149 150//150 
f 147//147 150//150 151//151 
f 147//147 151//151 152//152 
f 147//147 152//152 153//153 
f 147//147 153//153 154//154 
f 66//66 65//65 68//68 
f 66//66 68//68 67//67 
f 65//65 64//64 69//69 
f 65//65 69//69 68//68 
f 64//64 63//63 70//70 
f 64//64 70//70 69//69 
f 63//63 62//62 71//71 
f 63//63 71//71 70//70 
f 62//62 61//61 72//72 
f 62//62 72//72 71//71 
f 61//61 60//60 73//73 
f 61//61 73//73 72//72 
f 60//60 59//59 74//74 
f 60//60 74//74 73//73 
f 59//59 66//66 67//67 
f 59//59 67//67 74//74 
